<svg id="Layer_1" data-name="Layer 1" xmlns="http://www.w3.org/2000/svg" viewBox="0 0 1080 1300"><defs><style>.cls-1,.cls-2{fill:#fff;}.cls-2{font-size:180px;font-family:Ubuntu-Bold, Ubuntu;font-weight:700;}.cls-3{letter-spacing:-0.01em;}.cls-4{letter-spacing:-0.01em;}.cls-5{letter-spacing:-0.01em;}.cls-6{letter-spacing:0em;}</style></defs><path class="cls-1" d="M188.69,814.12l-.54-6.56-2.79-33.77-.06-.55-.41-4-3.14-.91-1.23-.36L95.89,748V589.12l-2.37-.51-42.91-9.19-6-1.29V785.06l133.82,30.06,2.68.59,3.29.73,1.07-.55,3.23-1.65Zm-7.87-4.63L50.61,780.26V585.56L89.89,594V752.71L179,773.79l.26.07.13,0,3,35.94Z"/><polygon class="cls-1" points="339.52 517.87 339.52 524.2 338.18 523.9 332.02 522.57 332.45 520.45 333.21 516.68 333.94 516.82 334 516.84 334.01 516.84 337.18 517.42 339.49 517.86 339.52 517.87"/><path class="cls-1" d="M339.53,522.31v-.92l0-3.35v-.18l-2.31-.43-.12.07-4.6,2.94-2.58,1.66-37.73,24.16-.25.17-4.5,2.88v212.2l53.07-29ZM293.39,751.4V552.58l40.16-25.71.9,202.12Z"/><path class="cls-1" d="M248.67,616.21l0-1.27-.06-2.51-.8-1.22L214.7,630l-7.83,4.45L204.35,636l-3.57,2.2V763.71l32.63-17.2,10.05-5.3,6-3.15.06,0ZM243.5,734.43l-13.2,6.94-23.52,12.39V641.6l3.11-1.93,8-4.57L242.7,621l.8,113Z"/><path class="cls-1" d="M184.52,607.94l-91-19.33,2.37.51v6.12l86.91,18.47.62.14-2.11-3.39Zm0,0-91-19.33,2.37.51v6.12l86.91,18.47.62.14-2.11-3.39Zm0,0-91-19.33,2.37.51v6.12l86.91,18.47.62.14-2.11-3.39Zm155-89.9-2.43-.54-3-.67h0l-.07,0-151.4-33.25L66.19,544.35l-1.92,1-17.39,28L44.61,577v7.26l6,1.3L89.89,594l2.37.52,3.63.76,86.91,18.47.62.14,2.59.52,37.25-29.25,4.73-3.73-2.18-3.27-2.56-.63-7-1.7-84.43-18.1,53.35-29.12L284.8,551l2.59.58v4.86l46.16-29.55,4.62-3,1.35-.86v-5ZM293.8,545.18l-1.66,1.08-.25.17-107.61-24.2-69.53,37.95,98.92,21.19,3.59.83-32.72,25.74h0l-91-19.33-42.91-9.19v-.71l17.9-28.81,114.87-60L329.87,522.1ZM184.52,607.94l-91-19.33,2.37.51v6.12l86.91,18.47.62.14-2.11-3.39Zm0,0-91-19.33,2.37.51v6.12l86.91,18.47.62.14-2.11-3.39Zm0,0-91-19.33,2.37.51v6.12l86.91,18.47.62.14-2.11-3.39Z"/><path class="cls-1" d="M203.67,767l-.07.15.18-.09Z"/><polygon class="cls-1" points="336.52 520.36 336.52 520.47 333.83 519.89 333.89 519.86 336.52 520.36"/><path class="cls-1" d="M243.5,734.05l-13.2,7.32-29.52,16.4-19,10.58L179,769.86l.18,4,1.61,35.63.29,6.22,3.29.73,1.07-.55,3.22-1.77,60.77-33.61V730.74Zm0,42.93-55.31,30.58-1.37.75-1.59-35,.11-.06,48.11-26.73,10.05-5.58Z"/><path class="cls-1" d="M248.58,612.43l-.8-1.22L228,581.39l-2.18-3.27-2.56-.63-6,4.71-32.74,25.74-3.21,2.52,2.11,3.39,17.36,27.8,2.08,3.34,3.92-2.57,11.15-7.32,30.71-20.16ZM204.7,636.6l-.35-.56-15.1-24.18,34-26.74,18.16,27.37L214.7,630Z"/><text class="cls-2" transform="translate(356.6 736.6)">Da<tspan class="cls-3" x="232.2" y="0">r</tspan><tspan class="cls-4" x="306.36" y="0">a</tspan><tspan class="cls-5" x="403.56" y="0">v</tspan><tspan class="cls-6" x="500.04" y="0">el</tspan></text></svg>