<svg id="Layer_1" data-name="Layer 1" xmlns="http://www.w3.org/2000/svg" viewBox="0 0 1080 1300"><defs><style>.cls-1{fill:#fff;}</style></defs><path class="cls-1" d="M534.25,895.24l-.8-9.8L529.28,835l-.09-.82-.61-5.93-4.7-1.38-1.83-.53L395.58,796.39V559l-3.54-.76-64.12-13.74-9-1.91V851.83l200,44.9,4,.9,4.91,1.09,1.6-.82,4.83-2.48Zm-11.76-6.91L327.92,844.66v-291l58.7,12.57V803.49L519.7,835l.39.11.19.06,4.46,53.7Z"/><polygon class="cls-1" points="759.64 452.55 759.64 462.01 757.62 461.57 748.43 459.57 749.08 456.4 750.21 450.79 751.29 450.98 751.39 451.01 751.41 451.01 756.13 451.89 759.58 452.54 759.64 452.55"/><path class="cls-1" d="M759.66,459.18l0-1.36-.06-5v-.27l-3.45-.64L756,452l-6.87,4.39-3.86,2.47L688.84,495l-.37.24-6.73,4.3V816.64l79.31-43.31ZM690.71,801.53V504.43l60-38.43,1.34,302Z"/><path class="cls-1" d="M623.88,599.51l0-1.89-.09-3.77-1.2-1.81-49.43,28.13-11.7,6.65-3.77,2.31-5.33,3.3v187.5l48.76-25.71,15-7.92,9-4.72.09,0Zm-7.72,176.65-19.73,10.38-35.14,18.52V637.44l4.64-2.88,12-6.83,37-21,1.2,168.9Z"/><path class="cls-1" d="M528,587.16l-136-28.9,3.54.76v9.16l129.87,27.6.93.19-3.15-5.05Zm0,0-136-28.9,3.54.76v9.16l129.87,27.6.93.19-3.15-5.05Zm0,0-136-28.9,3.54.76v9.16l129.87,27.6.93.19-3.15-5.05ZM759.58,452.8,756,452l-4.54-1h0l-.1,0-226.24-49.7L351.2,492.12l-2.87,1.49-26,41.81-3.4,5.5v10.85l9,1.93,58.7,12.57,3.54.76,5.42,1.15,129.87,27.6.93.19,3.87.8L585.91,553l7.07-5.56-3.26-4.9-3.82-.92-10.46-2.56-126.17-27L529,468.55,677.87,502l3.87.86v7.27l69-44.16,6.9-4.42,2-1.3v-7.46Zm-68.26,40.57L688.84,495l-.37.24L527.66,459.06,423.77,515.77l147.81,31.67,5.37,1.25-48.9,38.47h0l-136-28.9-64.12-13.74v-1l26.75-43.05,171.65-89.69,218.9,48.13ZM528,587.16l-136-28.9,3.54.76v9.16l129.87,27.6.93.19-3.15-5.05Zm0,0-136-28.9,3.54.76v9.16l129.87,27.6.93.19-3.15-5.05Zm0,0-136-28.9,3.54.76v9.16l129.87,27.6.93.19-3.15-5.05Z"/><path class="cls-1" d="M556.64,824.84l-.11.23.27-.15Z"/><path class="cls-1" d="M616.16,775.59l-19.73,10.95-44.11,24.51-28.44,15.79-4.06,2.26.27,6,2.4,53.25.44,9.3,4.91,1.09,1.6-.82,4.81-2.66L625.06,845V770.64Zm-.06,64.15-82.65,45.7-2.05,1.13L529,834.24l.17-.09,71.89-39.93,15-8.34Z"/><path class="cls-1" d="M623.75,593.85l-1.2-1.81L593,547.48l-3.26-4.9-3.82-.92-8.95,7L528,587.16l-4.79,3.76,3.15,5.05,25.94,41.56,3.11,5,5.86-3.84L578,627.73l45.89-30.11ZM558.18,630l-.53-.84L535.09,593l50.82-40L613.05,594l-39.93,26.21Z"/></svg>